<svg xmlns="http://www.w3.org/2000/svg" xmlns:xlink="http://www.w3.org/1999/xlink" width="64" height="58" version="1.1" viewBox="0 0 64 58"><title>Tally Lab</title><desc>Created with Sketch.</desc><g fill="none" fill-rule="evenodd" stroke="none" stroke-width="1"><g><path fill="#37719E" d="M22.7512786,17.6183654 L22.7512789,3.00868634 C22.751279,1.34703476 24.0856121,0 25.7540888,0 L32.494567,0 L38.9617454,0 C40.6149434,0 41.9551251,1.33870166 41.9551251,3.00868634 L41.9551251,17.6183654 L62.5575958,52.3923124 C64.2457448,55.2416601 62.9275052,57.5515128 59.6136298,57.5515128 L4.66104392,57.5515128 C1.3469874,57.5515128 0.0509578989,55.2465394 1.76055419,52.4127034 L22.7512786,17.6183654 Z"/><g fill="#FFF" transform="translate(0.000000, 34.834348)"><polygon id="Rectangle-1" points="0 19.179 56.113 3.981 56.368 4.942 .255 20.14"/><ellipse id="Oval-1" cx="11.323" cy="13.436" rx="1.477" ry="1.493"/><ellipse id="Oval-1" cx="27.077" cy="15.427" rx="1.477" ry="1.493"/><ellipse id="Oval-1" cx="43.815" cy="1.493" rx="1.477" ry="1.493"/><ellipse id="Oval-1" cx="38.892" cy="13.436" rx="1.477" ry="1.493"/><ellipse id="Oval-1" cx="16.246" cy="11.446" rx="1.477" ry="1.493"/></g></g></g></svg>